<svg width="100%" height="100%" viewBox="0 0 200 204" fill="none" xmlns="http://www.w3.org/2000/svg">
<path d="M100.697 180.783C144.125 180.783 179.33 145.623 179.33 102.251C179.33 58.8785 144.125 23.7183 100.697 23.7183C57.2697 23.7183 22.0647 58.8785 22.0647 102.251C22.0647 145.623 57.2697 180.783 100.697 180.783Z" fill="#FFE9F6"/>
<path d="M179.759 170.186H198.221C199.203 170.186 200 169.389 200 168.409C200 167.429 199.203 166.633 198.221 166.633H181.231L175.343 124.181L184.237 116.095V119.342C184.237 120.322 185.034 121.118 186.016 121.118C186.997 121.118 187.794 120.322 187.794 119.342V112.297V112.175C187.794 112.052 187.794 112.052 187.794 111.991C187.794 111.868 187.794 111.868 187.794 111.807C187.794 111.684 187.794 111.684 187.672 111.623C187.672 111.501 187.672 111.501 187.549 111.439C187.549 111.439 187.549 111.317 187.426 111.317C187.426 111.194 187.304 111.194 187.304 111.133C187.304 111.133 187.304 111.011 187.181 111.011L187.058 110.888L186.936 110.766L186.813 110.643C186.69 110.643 186.69 110.521 186.629 110.521C186.629 110.521 186.506 110.521 186.445 110.398C186.322 110.398 186.322 110.398 186.261 110.276H186.138C186.016 110.276 186.016 110.276 185.954 110.276H173.626L169.026 77.0125L175.589 71.0705V74.3172C175.589 75.2973 176.386 76.0936 177.367 76.0936C178.349 76.0936 179.146 75.2973 179.146 74.3172V67.2725V67.15C179.146 67.0275 179.146 67.0275 179.146 66.9662C179.146 66.905 179.146 66.8437 179.146 66.7825C179.146 66.6599 179.146 66.6599 179.023 66.5987C179.023 66.4762 179.023 66.4762 178.901 66.4149C178.901 66.4149 178.901 66.2924 178.778 66.2924C178.778 66.1699 178.655 66.1699 178.655 66.1086C178.655 66.1086 178.655 65.9861 178.533 65.9861L178.41 65.8636L178.287 65.7411L178.165 65.6186L178.042 65.4961C178.042 65.4961 177.919 65.496 177.858 65.3735C177.735 65.3735 177.735 65.3735 177.674 65.251C177.551 65.251 177.551 65.251 177.49 65.251C177.429 65.251 177.367 65.251 177.306 65.251H167.554L166.02 55.6948C165.897 54.8372 165.161 54.2246 164.364 54.2246H154.182C153.324 54.2246 152.649 54.8372 152.526 55.6948L151.177 65.6186H141.424C141.302 65.6186 141.302 65.6186 141.24 65.6186H141.118C140.995 65.6186 140.995 65.6186 140.934 65.7411H140.811C140.688 65.7411 140.688 65.8636 140.627 65.8636L140.504 65.9861L140.382 66.1086L140.259 66.2311C140.259 66.2311 140.259 66.3537 140.136 66.3537C140.136 66.3537 140.014 66.4762 140.014 66.5374L139.891 66.6599C139.891 66.7825 139.768 66.7825 139.768 66.8437C139.768 66.905 139.768 66.9662 139.646 67.0275C139.646 67.15 139.646 67.15 139.646 67.2113C139.646 67.3338 139.646 67.3338 139.646 67.395V67.5176V74.5622C139.646 75.5423 140.443 76.3387 141.424 76.3387C142.406 76.3387 143.203 75.5423 143.203 74.5622V71.3155L149.766 77.2576L149.275 80.5655C149.275 80.688 149.275 80.7492 149.275 80.8718L145.166 110.521H132.347C132.224 110.521 132.224 110.521 132.163 110.521H132.04C131.917 110.521 131.917 110.521 131.856 110.643C131.856 110.643 131.733 110.643 131.733 110.766C131.611 110.766 131.611 110.888 131.549 110.888L131.427 111.011L131.304 111.133L131.181 111.256C131.181 111.256 131.181 111.378 131.059 111.378C131.059 111.378 130.936 111.501 130.936 111.562L130.813 111.684C130.813 111.807 130.691 111.807 130.691 111.868C130.691 111.991 130.691 111.991 130.568 112.052C130.568 112.175 130.568 112.175 130.568 112.236C130.568 112.297 130.568 112.358 130.568 112.42V112.542V119.648C130.568 120.628 131.365 121.424 132.347 121.424C133.328 121.424 134.125 120.628 134.125 119.648V116.401L143.019 124.487L137.131 166.939H120.018C119.037 166.939 118.24 167.735 118.24 168.715C118.24 169.696 119.037 170.492 120.018 170.492H138.48H179.759V170.186ZM150.502 96.615L156.636 101.761L148.907 108.193L150.502 96.615ZM169.823 108.254L162.033 101.822L168.167 96.6763L169.823 108.254ZM174.484 142.375L177.49 164.427L162.033 152.237L174.484 142.375ZM159.396 150.093L145.595 139.189L159.396 126.509L173.196 139.189L159.396 150.093ZM171.97 123.813L173.442 134.717L161.911 123.997L170.866 115.727L171.97 123.813ZM167.799 114.073L159.396 121.792L150.993 114.073H167.799ZM151.361 110.643L159.396 104.027L167.431 110.643H151.361ZM159.396 99.5554L152.158 93.4909L159.396 88.7128L166.633 93.4909L159.396 99.5554ZM162.524 86.6913L166.511 84.0572L167.308 89.9379L162.524 86.6913ZM159.396 84.6085L153.753 80.8718L159.396 75.7874L165.039 80.8718L159.396 84.6085ZM165.529 76.7062L161.911 73.4596L164.732 70.948L165.529 76.7062ZM159.396 71.2543L157.249 69.294H161.543L159.396 71.2543ZM156.82 73.5208L153.324 76.7675L154.121 71.1318L156.82 73.5208ZM152.22 84.0572L156.206 86.6913L151.422 89.8154L152.22 84.0572ZM147.865 115.85L156.82 124.12L145.289 134.779L147.865 115.85ZM144.246 142.375L156.636 152.237L141.179 164.427L144.246 142.375ZM159.396 154.381L174.914 166.694H143.878L159.396 154.381ZM181.661 114.073L174.914 120.138L174.055 114.073H181.661ZM172.828 69.294L168.412 73.2758L167.799 69.294H172.828ZM155.838 58.0226H162.953L164.057 66.0474H154.796L155.838 58.0226ZM145.902 69.294H150.809L150.318 73.2758L145.902 69.294ZM137.131 114.073H144.737L143.878 120.138L137.131 114.073Z" fill="#6E2EE7"/>
<path d="M47.3965 191.075C73.2768 191.075 94.257 170.615 94.257 145.376C94.257 120.138 73.2768 99.678 47.3965 99.678C21.5161 99.678 0.535889 120.138 0.535889 145.376C0.535889 170.615 21.5161 191.075 47.3965 191.075Z" fill="#EB93E1"/>
<path d="M47.9485 183.234C68.8832 183.234 85.8541 166.284 85.8541 145.376C85.8541 124.468 68.8832 107.519 47.9485 107.519C27.0139 107.519 10.043 124.468 10.043 145.376C10.043 166.284 27.0139 183.234 47.9485 183.234Z" fill="white"/>
<path fill-rule="evenodd" clip-rule="evenodd" d="M47.7031 100.275C22.8978 100.275 2.78912 120.358 2.78912 145.131C2.78912 169.905 22.8978 189.988 47.7031 189.988C72.5084 189.988 92.6171 169.905 92.6171 145.131C92.6171 120.358 72.5084 100.275 47.7031 100.275ZM0 145.131C0 118.819 21.3574 97.489 47.7031 97.489C74.0488 97.489 95.4062 118.819 95.4062 145.131C95.4062 171.444 74.0488 192.774 47.7031 192.774C21.3574 192.774 0 171.444 0 145.131Z" fill="#6E2EE7"/>
<path d="M9.42969 145.683L44.9431 145.131L21.1448 170.737L13.3552 161.548L9.42969 145.683Z" fill="#EFDC7F"/>
<path d="M47.6417 105.865C25.6834 105.865 7.83472 123.691 7.83472 145.622C7.83472 167.552 25.6834 185.378 47.6417 185.378C69.5999 185.378 87.4486 167.552 87.4486 145.622C87.4486 123.691 69.5999 105.865 47.6417 105.865ZM49.6658 182.192V177.721C49.6658 176.495 48.6844 175.515 47.4577 175.515C46.231 175.515 45.2496 176.495 45.2496 177.721V182.192C27.5235 181.09 11.7602 165.347 10.6562 147.643H15.6857C16.9124 147.643 17.8938 146.663 17.8938 145.438C17.8938 144.213 16.9124 143.233 15.6857 143.233H10.6562C11.7602 125.529 27.5235 110.337 45.2496 109.234V113.706C45.2496 114.931 46.231 115.912 47.4577 115.912C48.6844 115.912 49.6658 114.931 49.6658 113.706V109.234C67.3918 110.337 83.1551 125.468 84.2592 143.233H79.7816C78.5549 143.233 77.5736 144.213 77.5736 145.438C77.5736 146.663 78.5549 147.643 79.7816 147.643H84.2592C83.0938 165.347 67.3918 181.09 49.6658 182.192ZM25.0701 143.171L49.0524 142.62C50.4018 142.742 51.0151 144.948 50.7085 144.825C51.1378 145.438 50.2791 147.214 49.6044 147.582L38.4413 158.179C38.0119 158.608 37.3373 158.608 36.7852 158.608C36.2332 158.608 35.6199 158.363 35.1905 157.934C34.3318 157.077 34.3318 155.668 35.1905 154.81L42.8575 147.03L24.4567 147.582C22.2486 147.582 21.6966 146.602 21.6966 145.377C21.758 144.274 22.862 143.171 25.0701 143.171Z" fill="#6E2EE7"/>
<path fill-rule="evenodd" clip-rule="evenodd" d="M68.9253 159.894L64.0184 164.795L68.0666 169.328L65.2451 174.903L59.6636 175.331V182.315L65.2451 182.744L67.5146 188.869L64.0184 192.851L68.9253 197.752L73.0961 194.444L79.2297 196.649L79.5364 202.162H86.4673L87.0194 196.098L92.6009 193.893L97.0784 197.752L101.985 192.851L97.5691 188.502L100.943 182.744L106.34 182.315V175.331H100.697L98.1825 168.777L101.985 164.795L97.0784 159.894L92.6009 163.754L87.0194 160.997L86.4673 155.484H79.5364L79.2297 160.997L73.0961 163.754L68.9253 159.894Z" fill="#EFDC7F"/>
<path d="M82.8486 188.808C88.5396 188.808 93.153 184.2 93.153 178.517C93.153 172.833 88.5396 168.225 82.8486 168.225C77.1576 168.225 72.5442 172.833 72.5442 178.517C72.5442 184.2 77.1576 188.808 82.8486 188.808Z" fill="white"/>
<path fill-rule="evenodd" clip-rule="evenodd" d="M82.8487 169.061C77.6198 169.061 73.381 173.295 73.381 178.517C73.381 183.739 77.6198 187.973 82.8487 187.973C88.0775 187.973 92.3164 183.739 92.3164 178.517C92.3164 173.295 88.0775 169.061 82.8487 169.061ZM71.7075 178.517C71.7075 172.372 76.6956 167.39 82.8487 167.39C89.0018 167.39 93.9899 172.372 93.9899 178.517C93.9899 184.662 89.0018 189.644 82.8487 189.644C76.6956 189.644 71.7075 184.662 71.7075 178.517Z" fill="#6E2EE7"/>
<path fill-rule="evenodd" clip-rule="evenodd" d="M87.8781 203.51H78.1257V197.017C76.531 196.588 74.9362 195.975 73.5255 195.118L69.784 198.854C69.5387 199.099 69.2933 199.222 68.9866 199.222C68.68 199.222 68.3733 199.099 68.1893 198.854L62.9757 193.648C62.7304 193.403 62.6077 193.157 62.6077 192.851C62.6077 192.545 62.7304 192.239 62.9757 192.055L66.7172 188.318C65.8585 186.848 65.2452 185.316 64.8158 183.724H58.3142V173.984H64.8158C65.2452 172.391 65.8585 170.798 66.7172 169.389L62.9757 165.653C62.7304 165.408 62.6077 165.163 62.6077 164.856C62.6077 164.55 62.7304 164.244 62.9757 164.06L68.1893 158.853C68.4346 158.608 68.68 158.486 68.9866 158.486C69.2933 158.486 69.6 158.608 69.784 158.853L73.5255 162.59C74.9976 161.732 76.531 161.12 78.1257 160.691V154.198H87.8781V160.691C89.4728 161.12 91.0675 161.732 92.4783 162.59L96.2198 158.853C96.4651 158.608 96.7104 158.486 97.0171 158.486C97.3238 158.486 97.6305 158.608 97.8145 158.853L103.028 164.06C103.273 164.305 103.396 164.55 103.396 164.856C103.396 165.163 103.273 165.469 103.028 165.653L99.2865 169.389C100.145 170.86 100.759 172.391 101.188 173.984H107.69V183.724H101.188C100.759 185.316 100.145 186.909 99.2865 188.318L103.028 192.055C103.457 192.484 103.457 193.219 103.028 193.709L97.8145 198.916C97.5691 199.161 97.3238 199.283 97.0171 199.283C96.7104 199.283 96.4038 199.161 96.2198 198.916L92.4783 195.179C91.0062 196.037 89.4728 196.649 87.8781 197.078V203.51ZM79.5364 202.162H86.4674V195.975C88.6754 195.547 90.7609 194.689 92.6623 193.403L97.0171 197.752L101.924 192.851L97.5691 188.502C98.8572 186.603 99.7159 184.52 100.145 182.315H106.34V175.393H100.145C99.7159 173.187 98.8572 171.105 97.5691 169.206L101.924 164.856L97.0171 159.956L92.6623 164.305C90.7609 163.019 88.6754 162.161 86.4674 161.732V155.545H79.5364V161.732C77.3283 162.161 74.9976 163.141 73.0961 164.366L68.9866 159.894L64.0798 164.795L68.4346 169.144C67.1466 171.043 66.2879 173.126 65.8585 175.331H59.6636V182.254H65.8585C66.2879 184.459 67.1466 186.542 68.4346 188.441L64.0798 192.79L68.9866 197.691L73.3415 193.341C75.2429 194.628 77.3283 195.485 79.5364 195.914V202.162Z" fill="#6E2EE7"/>
<path d="M76.9603 71.3158L97.5691 20.5944C97.5691 20.5944 80.6404 8.95539 50.4632 26.1076C20.2859 43.2598 24.8861 71.2546 24.8861 71.2546H76.9603V71.3158Z" fill="#2775EB"/>
<path d="M76.1016 72.4184L130.506 71.5608L130.752 54.5312L121.858 38.2366L76.1016 72.4184Z" fill="#EB93E1"/>
<path d="M77.9417 68.2528L97.6305 20.5942C97.6305 20.5942 114.13 26.0462 121.797 40.5643L77.9417 68.2528Z" fill="#EFDC7F"/>
<path d="M81.3152 29.4766C81.3152 31.3144 79.8432 32.8458 77.9418 32.8458C76.0403 32.8458 74.5683 31.3756 74.5683 29.4766C74.5683 27.5776 76.0403 26.1074 77.9418 26.1074C79.8432 26.1074 81.3152 27.5776 81.3152 29.4766ZM107.567 39.0328C105.727 39.0328 104.193 40.503 104.193 42.402C104.193 44.301 105.666 45.7712 107.567 45.7712C109.468 45.7712 110.94 44.301 110.94 42.402C110.94 40.503 109.407 39.0328 107.567 39.0328ZM48.3165 39.0328C46.4765 39.0328 44.9431 40.503 44.9431 42.402C44.9431 44.301 46.4151 45.7712 48.3165 45.7712C50.218 45.7712 51.69 44.301 51.69 42.402C51.69 40.503 50.1566 39.0328 48.3165 39.0328ZM133.941 68.9879C133.941 70.2131 133.573 71.4995 132.592 72.4796C131.733 73.3372 130.445 73.9498 129.096 73.9498H26.665C25.4383 73.9498 24.1502 73.4597 23.1689 72.4796C22.3102 71.4995 21.9421 70.2131 21.9421 68.9879C23.0462 38.7878 47.5805 15.0198 77.9418 15.0198C108.303 15.0198 132.837 38.7878 133.941 68.9879ZM130.752 70.7644C129.157 41.2381 106.156 18.389 77.9418 18.389C49.7273 18.389 26.665 41.2381 25.1316 70.5806H71.9308L97.5692 49.998C98.6119 49.2016 100.023 49.3241 100.82 50.243C101.74 51.2231 101.863 52.6933 101.065 53.6735L89.2889 70.7031H130.752V70.7644Z" fill="#6E2EE7"/>
<path d="M28.8731 1.11426H49.9113C50.3407 1.11426 50.586 1.54306 50.402 1.91061L36.6628 29.8442C36.4788 30.2117 36.7241 30.6405 37.1535 30.6405H49.7273C50.1567 30.6405 50.4634 31.1306 50.1567 31.4981L18.8141 76.7064C18.4461 77.2577 17.5874 76.8289 17.8327 76.2163L28.9958 44.056C29.1185 43.6884 28.8731 43.3209 28.4438 43.3209H15.6859C15.3179 43.3209 15.0112 42.9533 15.1339 42.5858L28.3211 1.42055C28.3825 1.23677 28.6278 1.11426 28.8731 1.11426Z" fill="#EFDC7F"/>
<path fill-rule="evenodd" clip-rule="evenodd" d="M29.2335 2.22844L16.4266 42.2066H28.4436C28.9933 42.2066 29.5084 42.452 29.8311 42.8982C30.1491 43.338 30.2244 43.8978 30.054 44.4083L30.0519 44.4146L20.2332 72.7019L48.6216 31.7547H37.1533C35.8593 31.7547 35.1285 30.4244 35.6627 29.3501C35.6634 29.3487 35.6641 29.3473 35.6648 29.3458L49.0026 2.22844H29.2335ZM27.9991 0.21741C28.2691 0.0721883 28.5748 0 28.873 0H49.9112C51.2052 0 51.9359 1.33023 51.4019 2.40448C51.4012 2.40594 51.4005 2.4074 51.3997 2.40886L38.062 29.5263H49.7272C50.3752 29.5263 50.9221 29.894 51.1973 30.3979C51.4832 30.9214 51.4823 31.6097 51.0523 32.1633L19.7355 77.3343C19.1886 78.1428 18.2404 78.217 17.5943 77.8944C16.9457 77.5705 16.4327 76.756 16.7852 75.832L27.6833 44.4351H15.6858C14.6527 44.4351 13.6872 43.4138 14.0728 42.2412L27.2604 1.07456L27.2626 1.06816C27.4111 0.623247 27.7397 0.356888 27.9991 0.21741Z" fill="#6E2EE7"/>
<path d="M112.903 92.4495H119.037C119.466 92.4495 119.712 92.8783 119.528 93.2458L115.479 101.516C115.295 101.883 115.541 102.312 115.97 102.312H118.853C119.282 102.312 119.589 102.802 119.282 103.17L110.757 115.482C110.389 116.034 109.53 115.605 109.775 114.992L112.413 107.335C112.535 106.968 112.29 106.6 111.861 106.6H108.61C108.242 106.6 107.935 106.232 108.058 105.865L112.229 92.8783C112.474 92.6332 112.658 92.4495 112.903 92.4495Z" fill="#EFDC7F"/>
<path fill-rule="evenodd" clip-rule="evenodd" d="M113.18 93.5639L109.351 105.486H111.86C112.41 105.486 112.925 105.731 113.248 106.178C113.566 106.617 113.641 107.177 113.471 107.688L113.469 107.693L112.158 111.5L117.748 103.426H115.97C114.676 103.426 113.946 102.097 114.479 101.023L118.13 93.5639H113.18ZM111.917 91.6655C112.142 91.5053 112.473 91.3354 112.903 91.3354H119.037C120.33 91.3354 121.061 92.6646 120.528 93.7386L116.877 101.198H118.853C119.501 101.198 120.048 101.566 120.323 102.07C120.609 102.593 120.608 103.281 120.178 103.835L111.678 116.11C111.131 116.919 110.183 116.993 109.537 116.671C108.889 116.347 108.376 115.533 108.727 114.61L111.102 107.714H108.61C107.576 107.714 106.611 106.693 106.997 105.52L111.249 92.2813L111.44 92.0906C111.446 92.0839 111.453 92.0769 111.461 92.0695C111.565 91.9646 111.732 91.7976 111.917 91.6655Z" fill="#6E2EE7"/>
</svg>
