<svg width="100%" height="100%" viewBox="0 0 238 54" fill="none" xmlns="http://www.w3.org/2000/svg">
<path fill-rule="evenodd" clip-rule="evenodd" d="M172.2 9.9L177.2 3.9H237.3V15.7L228.3 24.7L228 43.9L217.9 53.1H204.4V25.7L200.1 25.8V44L190.1 53.2H136.8L139.4 47.9L133.7 53.2H127.2L124.2 46.6L118.4 53.2H111.7L105.1 39.1L104.2 40C104.2 40 96.2 48 94.6 49.5C93 51 88.6 53.1 88.6 53.1H73.7L67.8 49.9L65.8 52.9L29.1 53.1L21.3 45.9L14.6 52.9L0 53.1V10.1L10 0.1L23.4 11.9L30.4 3.9H67.3V15.6L65.4 17.8H67.8L73.8 11.8C86.1 -3.2 101.1 5.9 101.1 5.9L103.1 3.9H117.5L121.9 11.9L129.9 3.9H144.3L143 6.8L145.6 3.9H160L157 10L167 0L172.2 9.9ZM82.5 26.1C85.9 26.6 88.6 29.3 89.1 32.7C85.7 32.2 83 29.5 82.5 26.1ZM235.5 6.0999H207.6H207.3H179.4V13.8999H188.7V42.0999H198.3V13.8999H207.3H207.6H216.6V42.0999H226.2V13.8999H235.5V6.0999ZM162.4 34.8999L167.2 24.7999L171.9 34.8999H162.4ZM184.6 42.0999L167.2 4.8999L149.8 42.0999H184.6ZM139.7 43.2999L157.1 6.0999H147.1L139.7 21.9999L136.8 15.9999L141.5 6.0999H131.5L124.1 21.9999L116.6 6.0999H106.7L124.1 43.2999L131.9 26.5999L139.7 43.2999ZM101.2 24.0999C101.2 29.4999 96.7999 33.9999 91.2999 33.9999C85.7999 33.9999 81.3999 29.4999 81.3999 24.0999C81.3999 18.6999 85.8999 14.1999 91.2999 14.1999C96.7999 14.1999 101.2 18.6999 101.2 24.0999ZM109.9 24.0999C109.9 13.8999 101.5 5.4999 91.2999 5.4999C80.9999 5.4999 72.7 13.8999 72.7 24.0999C72.7 34.3999 80.9999 42.6999 91.2999 42.6999C101.5 42.6999 109.9 34.3999 109.9 24.0999ZM72.8999 34.2999H55.5V27.9999H69.2999V20.1999H55.5V13.8999H65.7V6.0999H45.9V42.0999H72.8999V34.2999ZM42.2 6.0999H32.6V23.7999L12.2 4.8999V42.0999H21.8V24.3999L42.2 43.2999V6.0999Z" fill="black"/>
</svg>
