<svg width="100%" height="100%" viewBox="0 0 164 105" fill="none" xmlns="http://www.w3.org/2000/svg">
<path fill-rule="evenodd" clip-rule="evenodd" d="M43.4 55.0001H29.1L19 65.1001L37.4 104.2H43.9L50.1 98.0001L53 104.2H59.5L65.2 98.7001L62.6 104.2H115.9L125.9 95.0001V76.8001H130.2V104.2H143.8L153.8 95.0001V75.7001L163.1 66.8001V55.0001H103L97.4 60.9001L92.8 51.1001L82.7 61.6001L85.7 55.0001H71.4L68.8 57.9001L70.2 55.0001H55.8L47.5 63.7001L43.4 55.0001ZM161.1 57H133.2H132.9H105V64.8H114.3V93H123.9V64.8H132.9H133.2H142.2V93H151.8V64.8H161.1V57ZM88.0003 85.8L92.8003 75.6001L97.5003 85.8H88.0003ZM110.2 93L92.8003 55.8L75.4003 93H110.2ZM82.6535 57.1001L82.7003 57V57.1001H82.6535ZM65.3003 94.2001L82.6535 57.1001H72.7003L65.3003 73L62.4003 66.9001L67.1003 57H57.1003L49.7003 72.9001L42.2003 57H32.3003L49.7003 94.2001L57.5003 77.6001L65.3003 94.2001Z" fill="black"/>
<path fill-rule="evenodd" clip-rule="evenodd" d="M83.7 4.5C93.6 0.8 101.4 5.7 101.4 5.7C101.4 5.7 108.8 9.7 111.1 18.5C111.9 21.7 112.1 26.8 110.4 31.1C108.7 35.3 105.2 38.9 105.2 38.9L94.2 49.8C92.1 51.8 88.7 53 88.7 53H73.8C70.6 52 68.2 49.8 68.2 49.8L64.8 53H29.1L20.8 45.3L13.6 53H0V10L10 0L22.7 11.7L30.4 3.7H67.6V15.5L64.5 17.8H67.9L76.3 9.4C76.3 9.4 79.3 6.2 83.7 4.5ZM83.6 26.3C87.7 27.7 88.6 31.3 88.6 31.3C84.6 29.9 83.6 26.3 83.6 26.3ZM101 23.7C101 29.1 96.6 33.6 91.1 33.6C85.7 33.6 81.2 29.1 81.2 23.7C81.2 18.3 85.7 13.8 91.1 13.8C96.6 13.8 101 18.3 101 23.7ZM109.7 23.7C109.7 13.4 101.3 5.1 91.1 5.1C80.8 5.1 72.5 13.4 72.5 23.7C72.5 34 80.8 42.3 91.1 42.3C101.3 42.3 109.7 34 109.7 23.7ZM72.8 33.9H55.4V27.6H69.2V19.8H55.4V13.5H65.6V5.7H45.8V41.7H72.8V33.9ZM42 5.7H32.4V23.4L12 4.5V41.7H21.6V24L42 42.9V5.7Z" fill="black"/>
</svg>
